<svg width="899" height="369" viewBox="0 0 899 369" fill="none" xmlns="http://www.w3.org/2000/svg">
<g clip-path="url(#clip0_1_2)">
<mask id="mask0_1_2" style="mask-type:luminance" maskUnits="userSpaceOnUse" x="0" y="0" width="899" height="369">
<path d="M899 0H0V368.464H899V0Z" fill="white"/>
</mask>
<g mask="url(#mask0_1_2)">
<path d="M17.1237 71.9352C59.5352 73.4455 118.81 70.4647 161.215 71.9352C181.534 72.5174 202.493 72.3626 221.56 80.4364C264.405 98.0439 296.272 144.81 290.444 191.787C287.513 223.204 269.851 252.714 243.855 270.503C210.341 293.878 162.99 297.169 127.973 275.111C97.9923 256.954 78.7363 222.219 79.97 187.114C80.3715 168.442 78.645 160.834 89.56 155.204H137.851C125.922 163.809 128.161 174.239 128.976 188.932C128.413 217.492 154.377 243.413 183.031 242.38C219.294 244.237 250.304 207.153 243.629 171.798C241.45 159.668 235.568 148.229 227.181 139.219C206.036 117.323 173.482 116.657 145.137 117.87C115.965 117.52 69.9202 121.639 40.7533 120.936C32.8941 104.578 24.7601 88.3759 17.1237 71.9352Z" fill="#8B0000"/>
<path d="M304.464 208.522C304.464 183.066 310.803 162.992 323.481 148.302C336.26 133.612 354.271 126.266 377.513 126.266C404.479 126.266 424.503 133.209 437.583 147.095C450.663 160.98 457.203 183.317 457.203 214.106C457.203 220.144 454.386 223.162 448.751 223.162H349.139C350.749 239.865 354.874 250.38 361.515 254.706C368.156 259.032 375.853 261.196 384.607 261.196C392.958 261.196 399.348 260.09 403.775 257.875C408.202 255.662 411.925 252.643 414.944 248.82C418.364 244.392 422.591 243.689 427.622 246.707L442.714 255.913C448.651 259.536 449.506 263.862 445.28 268.894C439.143 276.238 431.948 281.722 423.698 285.345C415.446 288.967 402.417 290.778 384.607 290.778C355.729 290.778 335.153 283.433 322.877 268.742C310.602 254.052 304.464 233.979 304.464 208.522ZM349.29 192.977H414.944C414.944 182.11 412.227 173.255 406.793 166.413C401.36 159.47 392.707 155.999 380.834 155.999C371.376 155.999 363.879 159.319 358.346 165.96C352.812 172.501 349.793 181.506 349.29 192.977Z" fill="#8B0000"/>
<path d="M457.203 144.076C454.688 136.228 456.348 132.303 462.184 132.303H489.2C493.929 132.303 496.948 134.869 498.256 140.001L521.65 228.445C522.958 233.375 524.014 238.255 524.82 243.085C525.724 247.914 526.278 251.838 526.479 254.857H527.385C527.586 251.838 528.089 247.914 528.894 243.085C529.8 238.255 530.907 233.375 532.215 228.445L555.608 140.001C556.917 134.869 559.935 132.303 564.664 132.303H591.68C597.516 132.303 599.177 136.228 596.661 144.076L552.892 280.666C550.779 287.407 547.106 290.778 541.874 290.778H511.99C506.758 290.778 503.085 287.407 500.973 280.666L457.203 144.076Z" fill="#8B0000"/>
<path d="M617.513 290.778C611.476 290.778 608.458 287.759 608.458 281.722V141.359C608.458 135.322 611.476 132.303 617.513 132.303H641.662C647.699 132.303 650.717 135.322 650.717 141.359V281.722C650.717 287.759 647.699 290.778 641.662 290.778H617.513ZM617.513 109.061C611.476 109.061 608.458 106.042 608.458 100.005V80.6864C608.458 74.6487 611.476 71.6302 617.513 71.6302H641.662C647.699 71.6302 650.717 74.6487 650.717 80.6864V100.005C650.717 106.042 647.699 109.061 641.662 109.061H617.513Z" fill="#8B0000"/>
<path d="M678.047 290.778C669.394 290.778 667.582 287.105 672.616 279.76L722.574 207.314L678.504 143.321C673.469 135.976 675.282 132.303 683.935 132.303H712.459C716.984 132.303 720.411 134.316 722.719 138.341L746.117 179.091L769.508 138.341C771.824 134.316 775.244 132.303 779.775 132.303H808.3C817.051 132.303 818.864 135.976 813.731 143.321L769.356 207.314L819.618 279.76C824.751 287.105 822.939 290.778 814.187 290.778H785.656C781.23 290.778 777.81 288.766 775.396 284.741L746.117 235.538L716.838 284.741C714.424 288.766 710.997 290.778 706.572 290.778H678.047Z" fill="#8B0000"/>
<path d="M17.1237 71.9352C59.5352 73.4455 118.81 70.4647 161.215 71.9352C181.534 72.5174 202.493 72.3626 221.56 80.4364C264.405 98.0439 296.272 144.81 290.444 191.787C287.513 223.204 269.851 252.714 243.855 270.503C210.341 293.878 162.99 297.169 127.973 275.111C97.9923 256.954 78.7363 222.219 79.97 187.114C80.3715 168.442 78.645 160.834 89.56 155.204H137.851C125.922 163.809 128.161 174.239 128.976 188.932C128.413 217.492 154.377 243.413 183.031 242.38C219.294 244.237 250.304 207.153 243.629 171.798C241.45 159.668 235.568 148.229 227.181 139.219C206.036 117.323 173.482 116.657 145.137 117.87C115.965 117.52 69.9202 121.639 40.7533 120.936C32.8941 104.578 24.7601 88.3759 17.1237 71.9352Z" fill="#8B0000"/>
<path d="M304.464 208.522C304.464 183.066 310.803 162.992 323.481 148.302C336.26 133.612 354.271 126.266 377.513 126.266C404.479 126.266 424.503 133.209 437.583 147.095C450.663 160.98 457.203 183.317 457.203 214.106C457.203 220.144 454.386 223.162 448.751 223.162H349.139C350.749 239.865 354.874 250.38 361.515 254.706C368.156 259.032 375.853 261.196 384.607 261.196C392.958 261.196 399.348 260.09 403.775 257.875C408.202 255.662 411.925 252.643 414.944 248.82C418.364 244.392 422.591 243.689 427.622 246.707L442.714 255.913C448.651 259.536 449.506 263.862 445.28 268.894C439.143 276.238 431.948 281.722 423.698 285.345C415.446 288.967 402.417 290.778 384.607 290.778C355.729 290.778 335.153 283.433 322.877 268.742C310.602 254.052 304.464 233.979 304.464 208.522ZM349.29 192.977H414.944C414.944 182.11 412.227 173.255 406.793 166.413C401.36 159.47 392.707 155.999 380.834 155.999C371.376 155.999 363.879 159.319 358.346 165.96C352.812 172.501 349.793 181.506 349.29 192.977Z" fill="#8B0000"/>
<path d="M457.203 144.076C454.688 136.228 456.348 132.303 462.184 132.303H489.2C493.929 132.303 496.948 134.869 498.256 140.001L521.65 228.445C522.958 233.375 524.014 238.255 524.82 243.085C525.724 247.914 526.278 251.838 526.479 254.857H527.385C527.586 251.838 528.089 247.914 528.894 243.085C529.8 238.255 530.907 233.375 532.215 228.445L555.608 140.001C556.917 134.869 559.935 132.303 564.664 132.303H591.68C597.516 132.303 599.177 136.228 596.661 144.076L552.892 280.666C550.779 287.407 547.106 290.778 541.874 290.778H511.99C506.758 290.778 503.085 287.407 500.973 280.666L457.203 144.076Z" fill="#8B0000"/>
<path d="M617.513 290.778C611.476 290.778 608.458 287.759 608.458 281.722V141.359C608.458 135.322 611.476 132.303 617.513 132.303H641.662C647.699 132.303 650.717 135.322 650.717 141.359V281.722C650.717 287.759 647.699 290.778 641.662 290.778H617.513ZM617.513 109.061C611.476 109.061 608.458 106.042 608.458 100.005V80.6864C608.458 74.6487 611.476 71.6302 617.513 71.6302H641.662C647.699 71.6302 650.717 74.6487 650.717 80.6864V100.005C650.717 106.042 647.699 109.061 641.662 109.061H617.513Z" fill="#8B0000"/>
<path d="M678.047 290.778C669.394 290.778 667.582 287.105 672.616 279.76L722.574 207.314L678.504 143.321C673.469 135.976 675.282 132.303 683.935 132.303H712.459C716.984 132.303 720.411 134.316 722.719 138.341L746.117 179.091L769.508 138.341C771.824 134.316 775.244 132.303 779.775 132.303H808.3C817.051 132.303 818.864 135.976 813.731 143.321L769.356 207.314L819.618 279.76C824.751 287.105 822.939 290.778 814.187 290.778H785.656C781.23 290.778 777.81 288.766 775.396 284.741L746.117 235.538L716.838 284.741C714.424 288.766 710.997 290.778 706.572 290.778H678.047Z" fill="#8B0000"/>
</g>
</g>
<defs>
<clipPath id="clip0_1_2">
<rect width="899" height="368.464" fill="white"/>
</clipPath>
</defs>
</svg>
